<svg width="594" height="550" viewBox="0 0 594 550" fill="none" xmlns="http://www.w3.org/2000/svg">
<g clip-path="url(#clip0_3_5925)">
<path d="M391.553 169.739C317.869 172.197 311.551 152.293 232.509 120.574C153.469 88.8549 47.3335 158.637 69.5702 239.521C91.807 320.405 29.8756 415.563 113.939 455.212C198.003 494.861 362.435 529.752 446.364 455.212C530.293 380.672 581.678 163.395 391.553 169.739Z" fill="#FF8575"/>
<path d="M61.0848 227.145V213.603H85.3443V148.877H92.0322V213.603H118.164V227.145H132.16V498.533H31.2196V227.145H61.0848Z" fill="#FF988D"/>
<path d="M31.2195 471.269H45.2167L45.2167 227.145H31.2195L31.2195 471.269Z" fill="#CC6A5E"/>
<path d="M81.6905 498.533H182.63L182.63 291.792H81.6905L81.6905 498.533Z" fill="#FF988D"/>
<path d="M81.6905 498.533H95.6867L95.6867 291.792H81.6905L81.6905 498.533Z" fill="#CC6A5E"/>
<path d="M339.198 498.532H440.137V291.791H339.198V498.532Z" fill="#FF988D"/>
<path d="M339.198 498.532H353.194V291.791H339.198V498.532Z" fill="#CC6A5E"/>
<path d="M179.82 498.533H315.252L315.252 193.457H179.82L179.82 498.533Z" fill="#FF988D"/>
<path d="M179.82 498.533H193.816L193.816 193.457H179.82L179.82 498.533Z" fill="#CC6A5E"/>
<path d="M279.836 216.197H300.987V208.069H279.836V216.197Z" fill="#FFB9B3"/>
<path d="M244.223 216.197H265.375V208.069H244.223V216.197Z" fill="#FFB9B3"/>
<path d="M279.836 245.793H300.987V237.664H279.836V245.793Z" fill="#FFB9B3"/>
<path d="M244.223 245.793H265.375V237.664H244.223V245.793Z" fill="#FFB9B3"/>
<path d="M208.612 245.793H229.763V237.664H208.612V245.793Z" fill="#FFB9B3"/>
<path d="M279.836 275.389H300.987V267.261H279.836V275.389Z" fill="#FFB9B3"/>
<path d="M208.612 275.389H229.763V267.261H208.612V275.389Z" fill="#FFB9B3"/>
<path d="M244.223 290.187H265.375V282.058H244.223V290.187Z" fill="#FFB9B3"/>
<path d="M279.836 304.985H300.987V296.856H279.836V304.985Z" fill="#FFB9B3"/>
<path d="M244.223 319.783H265.375V311.655H244.223V319.783Z" fill="#FFB9B3"/>
<path d="M279.836 334.58H300.987V326.452H279.836V334.58Z" fill="#FFB9B3"/>
<path d="M208.612 334.58H229.763V326.452H208.612V334.58Z" fill="#FFB9B3"/>
<path d="M279.836 361.93H300.987V353.802H279.836V361.93Z" fill="#FFB9B3"/>
<path d="M244.223 361.93H265.375V353.802H244.223V361.93Z" fill="#FFB9B3"/>
<path d="M279.836 391.525H300.987V383.397H279.836V391.525Z" fill="#FFB9B3"/>
<path d="M244.223 391.525H265.375V383.397H244.223V391.525Z" fill="#FFB9B3"/>
<path d="M208.612 391.525H229.763V383.397H208.612V391.525Z" fill="#FFB9B3"/>
<path d="M279.836 421.122H300.987V412.993H279.836V421.122Z" fill="#FFB9B3"/>
<path d="M208.612 421.122H229.763V412.993H208.612V421.122Z" fill="#FFB9B3"/>
<path d="M244.223 435.92H265.375V427.791H244.223V435.92Z" fill="#FFB9B3"/>
<path d="M208.612 435.92H229.763V427.791H208.612V435.92Z" fill="#FFB9B3"/>
<path d="M279.836 450.718H300.987V442.589H279.836V450.718Z" fill="#FFB9B3"/>
<path d="M244.223 465.516H265.375V457.387H244.223V465.516Z" fill="#FFB9B3"/>
<path d="M279.836 480.314H300.987V472.185H279.836V480.314Z" fill="#FFB9B3"/>
<path d="M208.612 480.314H229.763V472.185H208.612V480.314Z" fill="#FFB9B3"/>
<path d="M408.739 498.533H541.479V216.197H408.739V498.533Z" fill="#FF988D"/>
<path d="M408.739 498.533H422.457L422.457 216.197H408.739L408.739 498.533Z" fill="#CC6A5E"/>
<path d="M506.766 237.242H527.497V229.719H506.766V237.242Z" fill="#FFB9B3"/>
<path d="M471.862 237.242H492.593V229.719H471.862V237.242Z" fill="#FFB9B3"/>
<path d="M506.766 264.632H527.497V257.109H506.766V264.632Z" fill="#FFB9B3"/>
<path d="M471.862 264.632H492.593V257.109H471.862V264.632Z" fill="#FFB9B3"/>
<path d="M436.959 264.632H457.689V257.109H436.959V264.632Z" fill="#FFB9B3"/>
<path d="M506.766 292.021H527.497V284.499H506.766V292.021Z" fill="#FFB9B3"/>
<path d="M436.959 292.021H457.689V284.499H436.959V292.021Z" fill="#FFB9B3"/>
<path d="M471.862 305.716H492.593V298.194H471.862V305.716Z" fill="#FFB9B3"/>
<path d="M506.766 319.412H527.497V311.889H506.766V319.412Z" fill="#FFB9B3"/>
<path d="M471.862 333.107H492.593V325.584H471.862V333.107Z" fill="#FFB9B3"/>
<path d="M506.766 346.801H527.497V339.279H506.766V346.801Z" fill="#FFB9B3"/>
<path d="M436.959 346.801H457.689V339.279H436.959V346.801Z" fill="#FFB9B3"/>
<path d="M506.766 372.112H527.497V364.59H506.766V372.112Z" fill="#FFB9B3"/>
<path d="M471.862 372.112H492.593V364.59H471.862V372.112Z" fill="#FFB9B3"/>
<path d="M506.766 399.502H527.497V391.979H506.766V399.502Z" fill="#FFB9B3"/>
<path d="M471.862 399.502H492.593V391.979H471.862V399.502Z" fill="#FFB9B3"/>
<path d="M436.959 399.502H457.689V391.979H436.959V399.502Z" fill="#FFB9B3"/>
<path d="M506.766 426.891H527.497V419.37H506.766V426.891Z" fill="#FFB9B3"/>
<path d="M436.959 426.891H457.689V419.37H436.959V426.891Z" fill="#FFB9B3"/>
<path d="M471.862 440.586H492.593V433.064H471.862V440.586Z" fill="#FFB9B3"/>
<path d="M436.959 440.586H457.689V433.064H436.959V440.586Z" fill="#FFB9B3"/>
<path d="M506.766 454.282H527.497V446.759H506.766V454.282Z" fill="#FFB9B3"/>
<path d="M471.862 467.977H492.593V460.454H471.862V467.977Z" fill="#FFB9B3"/>
<path d="M506.766 481.672H527.497V474.149H506.766V481.672Z" fill="#FFB9B3"/>
<path d="M436.959 481.672H457.689V474.149H436.959V481.672Z" fill="#FFB9B3"/>
<path d="M-36.2274 498.533H49.2629L49.2629 305.96H-36.2274L-36.2274 498.533Z" fill="#FF988D"/>
<path d="M26.9057 320.314H40.258V315.183H26.9057V320.314Z" fill="#FFB9B3"/>
<path d="M4.42645 320.314H17.7778V315.183H4.42645V320.314Z" fill="#FFB9B3"/>
<path d="M26.9057 338.995H40.258V333.864H26.9057V338.995Z" fill="#FFB9B3"/>
<path d="M4.42645 338.995H17.7778V333.864H4.42645V338.995Z" fill="#FFB9B3"/>
<path d="M26.9057 357.678H40.258V352.546H26.9057V357.678Z" fill="#FFB9B3"/>
<path d="M4.42645 367.018H17.7778V361.888H4.42645V367.018Z" fill="#FFB9B3"/>
<path d="M26.9057 376.359H40.258V371.229H26.9057V376.359Z" fill="#FFB9B3"/>
<path d="M4.42645 385.7H17.7778V380.569H4.42645V385.7Z" fill="#FFB9B3"/>
<path d="M26.9057 395.041H40.258V389.91H26.9057V395.041Z" fill="#FFB9B3"/>
<path d="M26.9057 412.305H40.258V407.174H26.9057V412.305Z" fill="#FFB9B3"/>
<path d="M4.42645 412.305H17.7778V407.174H4.42645V412.305Z" fill="#FFB9B3"/>
<path d="M26.9057 430.986H40.258V425.856H26.9057V430.986Z" fill="#FFB9B3"/>
<path d="M4.42645 430.986H17.7778V425.856H4.42645V430.986Z" fill="#FFB9B3"/>
<path d="M26.9057 449.669H40.258V444.538H26.9057V449.669Z" fill="#FFB9B3"/>
<path d="M4.42645 459.009H17.7778V453.878H4.42645V459.009Z" fill="#FFB9B3"/>
<path d="M26.9057 468.351H40.258V463.22H26.9057V468.351Z" fill="#FFB9B3"/>
<path d="M4.42645 477.691H17.7778V472.56H4.42645V477.691Z" fill="#FFB9B3"/>
<path d="M26.9057 487.032H40.258V481.901H26.9057V487.032Z" fill="#FFB9B3"/>
<path opacity="0.14" d="M284.217 94.0833H-117.685V506.38H284.217V94.0833Z" fill="white"/>
<path d="M288.615 89.3665H279.823V511.701H288.615V89.3665Z" fill="white"/>
<path opacity="0.6" d="M20.6793 498.935H-10.5133L156.699 98.801H187.89L20.6793 498.935Z" fill="white"/>
<path opacity="0.6" d="M-34.3985 498.935H-49.9943L117.217 98.801H132.814L-34.3985 498.935Z" fill="white"/>
<path opacity="0.6" d="M151.825 498.935H136.23L279.587 141.76V170.537L151.825 498.935Z" fill="white"/>
<path d="M20.6791 91.496H11.8866V509.571H20.6791V91.496Z" fill="white"/>
<path d="M-122.082 501.663V512.578H288.614V501.663H-122.082Z" fill="white"/>
<path d="M154.647 91.496H145.855V509.571H154.647V91.496Z" fill="white"/>
<path d="M279.775 502.265V498.935H-113.245V502.265H279.775Z" fill="white"/>
<path d="M-122.082 89.3661V98.8008L288.614 98.8008V89.3661L-122.082 89.3661Z" fill="white"/>
<path d="M279.858 102.132V98.8008L-113.328 98.8008V102.132L279.858 102.132Z" fill="white"/>
<path opacity="0.14" d="M686.158 94.0833H284.256V506.38H686.158V94.0833Z" fill="white"/>
<path d="M288.652 89.3665H279.86V511.701H288.652V89.3665Z" fill="white"/>
<path opacity="0.6" d="M352.798 498.935H321.606L488.817 98.801H520.01L352.798 498.935Z" fill="white"/>
<path opacity="0.6" d="M297.721 498.935H282.125L449.337 98.801H464.932L297.721 498.935Z" fill="white"/>
<path opacity="0.6" d="M553.766 498.935H538.17L681.528 141.76V170.537L553.766 498.935Z" fill="white"/>
<path d="M422.62 91.496H413.828V509.571H422.62V91.496Z" fill="white"/>
<path d="M279.858 501.663V512.578H690.555V501.663H279.858Z" fill="white"/>
<path d="M556.588 91.496H547.796V509.571H556.588V91.496Z" fill="white"/>
<path d="M681.717 502.265V498.935H288.696V502.265H681.717Z" fill="white"/>
<path d="M279.858 89.3661V98.8008L690.555 98.8008V89.3661L279.858 89.3661Z" fill="white"/>
<path d="M681.8 102.132V98.8008L288.613 98.8008V102.132L681.8 102.132Z" fill="white"/>
<path d="M-122.082 163.734V168.451L704.995 168.451V163.734L-122.082 163.734Z" fill="white"/>
<path d="M-122.082 289.529V294.247L704.995 294.247V289.529L-122.082 289.529Z" fill="white"/>
<path d="M-122.082 415.324V420.042L704.995 420.042V415.324L-122.082 415.324Z" fill="white"/>
<path d="M218.113 205.08C209.942 205.071 202.107 202.062 196.329 196.711C190.55 191.361 187.3 184.107 187.291 176.54H188.741C188.741 183.753 191.836 190.671 197.344 195.771C202.853 200.872 210.324 203.737 218.114 203.737C225.904 203.737 233.375 200.872 238.884 195.771C244.392 190.671 247.487 183.753 247.487 176.54H248.936C248.927 184.107 245.676 191.361 239.898 196.711C234.12 202.062 226.285 205.071 218.113 205.08Z" fill="#CC6A5E"/>
<path d="M217.698 154.214L178.821 184.037H264.538L217.698 154.214Z" fill="#CC6A5E"/>
<path opacity="0.22" d="M198.378 179.827L157.32 302.351H276.71L237.91 179.827H198.378Z" fill="url(#paint0_linear_3_5925)"/>
<path d="M219.688 108.033H215.914V163.396H219.688V108.033Z" fill="#FF988D"/>
<path d="M214.293 158.161H221.31C222.057 158.161 222.773 158.436 223.301 158.925C223.829 159.414 224.126 160.077 224.126 160.768V170.847H211.477V160.768C211.477 160.077 211.774 159.414 212.302 158.925C212.83 158.436 213.546 158.161 214.293 158.161Z" fill="#F4BF62"/>
<path d="M224.998 185.043C224.998 183.694 224.566 182.375 223.757 181.254C222.947 180.132 221.797 179.258 220.451 178.742C219.105 178.226 217.624 178.091 216.196 178.354C214.767 178.617 213.454 179.266 212.424 180.22C211.394 181.174 210.693 182.389 210.408 183.712C210.124 185.035 210.27 186.406 210.828 187.653C211.385 188.899 212.329 189.964 213.54 190.713C214.752 191.463 216.176 191.863 217.633 191.863C219.586 191.863 221.459 191.144 222.841 189.865C224.222 188.586 224.998 186.852 224.998 185.043Z" fill="#CC6A5E"/>
<path d="M217.733 189.311C215.989 189.019 213.593 187.75 213.143 186.043C212.982 185.435 211.967 185.692 212.128 186.302C212.665 188.337 215.346 189.898 217.454 190.25C218.115 190.361 218.399 189.422 217.733 189.311Z" fill="#FFB9B3"/>
<path d="M217.698 154.214L174.84 184.037H260.557L217.698 154.214Z" fill="#FF988D"/>
<path d="M215.114 150.527H220.282C220.653 150.527 221.008 150.664 221.27 150.906C221.532 151.149 221.68 151.478 221.68 151.821V156.607C221.68 156.95 221.532 157.279 221.27 157.522C221.008 157.764 220.653 157.901 220.282 157.901H215.114C214.931 157.901 214.749 157.867 214.579 157.802C214.41 157.737 214.256 157.642 214.126 157.522C213.996 157.401 213.893 157.259 213.823 157.102C213.753 156.945 213.717 156.777 213.717 156.607V151.821C213.717 151.651 213.753 151.483 213.823 151.326C213.893 151.169 213.996 151.026 214.126 150.906C214.256 150.786 214.41 150.691 214.579 150.626C214.749 150.561 214.931 150.527 215.114 150.527Z" fill="#CC6A5E"/>
<path d="M448.489 136.641C449.357 138.731 449.354 141.045 448.481 143.134C447.608 145.222 445.927 146.935 443.765 147.938C425.676 156.303 371.721 175.454 313.276 140.309C245.021 99.2639 428.798 88.7794 448.489 136.641Z" fill="#FF8575"/>
<path opacity="0.14" d="M284.217 94.0833H-117.685V506.38H284.217V94.0833Z" fill="white"/>
<path d="M288.615 89.3665H279.823V511.701H288.615V89.3665Z" fill="white"/>
<path opacity="0.6" d="M20.6793 498.935H-10.5133L156.699 98.801H187.89L20.6793 498.935Z" fill="white"/>
<path opacity="0.6" d="M-34.3985 498.935H-49.9943L117.217 98.801H132.814L-34.3985 498.935Z" fill="white"/>
<path opacity="0.6" d="M151.825 498.935H136.23L279.587 141.76V170.537L151.825 498.935Z" fill="white"/>
<path d="M20.6791 91.496H11.8866V509.571H20.6791V91.496Z" fill="white"/>
<path d="M-122.082 501.663V512.578H288.614V501.663H-122.082Z" fill="white"/>
<path d="M154.647 91.496H145.855V509.571H154.647V91.496Z" fill="white"/>
<path d="M279.775 502.265V498.935H-113.245V502.265H279.775Z" fill="white"/>
<path d="M-122.082 89.3661V98.8008L288.614 98.8008V89.3661L-122.082 89.3661Z" fill="white"/>
<path d="M279.858 102.132V98.8008L-113.328 98.8008V102.132L279.858 102.132Z" fill="white"/>
<path opacity="0.14" d="M686.158 94.0833H284.256V506.38H686.158V94.0833Z" fill="white"/>
<path d="M288.652 89.3665H279.86V511.701H288.652V89.3665Z" fill="white"/>
<path opacity="0.6" d="M352.798 498.935H321.606L488.817 98.801H520.01L352.798 498.935Z" fill="white"/>
<path opacity="0.6" d="M297.721 498.935H282.125L449.337 98.801H464.932L297.721 498.935Z" fill="white"/>
<path opacity="0.6" d="M553.766 498.935H538.17L681.528 141.76V170.537L553.766 498.935Z" fill="white"/>
<path d="M422.62 91.496H413.828V509.571H422.62V91.496Z" fill="white"/>
<path d="M279.858 501.663V512.578H690.555V501.663H279.858Z" fill="white"/>
<path d="M556.588 91.496H547.796V509.571H556.588V91.496Z" fill="white"/>
<path d="M681.717 502.265V498.935H288.696V502.265H681.717Z" fill="white"/>
<path d="M279.858 89.3661V98.8008L690.555 98.8008V89.3661L279.858 89.3661Z" fill="white"/>
<path d="M681.8 102.132V98.8008L288.613 98.8008V102.132L681.8 102.132Z" fill="white"/>
<path d="M-122.082 163.734V168.451L704.995 168.451V163.734L-122.082 163.734Z" fill="white"/>
<path d="M-122.082 289.529V294.247L704.995 294.247V289.529L-122.082 289.529Z" fill="white"/>
<path d="M-122.082 415.324V420.042L704.995 420.042V415.324L-122.082 415.324Z" fill="white"/>
<path d="M477.373 499.938H215.753C213.761 499.938 211.85 499.205 210.441 497.901C209.032 496.596 208.241 494.827 208.24 492.982V203.952C208.24 201.596 209.252 199.336 211.051 197.67C212.851 196.003 215.292 195.067 217.837 195.067H475.289C477.834 195.067 480.275 196.003 482.075 197.67C483.875 199.336 484.886 201.596 484.886 203.952L484.887 492.982C484.887 493.895 484.692 494.8 484.315 495.644C483.937 496.488 483.383 497.255 482.686 497.901C481.988 498.547 481.16 499.059 480.248 499.409C479.337 499.758 478.36 499.938 477.373 499.938Z" fill="#A1C0CF"/>
<path d="M468.234 499.938H206.614C204.622 499.938 202.711 499.205 201.302 497.901C199.893 496.596 199.101 494.827 199.101 492.982L199.102 203.952C199.102 201.596 200.113 199.336 201.912 197.67C203.712 196.004 206.152 195.067 208.697 195.067H466.151C468.696 195.067 471.136 196.003 472.936 197.67C474.736 199.336 475.747 201.596 475.747 203.952V492.982C475.747 493.895 475.553 494.8 475.175 495.644C474.798 496.488 474.244 497.255 473.547 497.901C472.849 498.547 472.021 499.059 471.109 499.409C470.198 499.758 469.221 499.938 468.234 499.938Z" fill="#C5ECFD"/>
<path d="M219.871 325.478H454.978C455.511 325.478 456.039 325.575 456.532 325.764C457.025 325.953 457.472 326.23 457.849 326.579C458.226 326.929 458.525 327.343 458.729 327.799C458.933 328.255 459.039 328.744 459.039 329.238V483.205C459.039 484.203 458.611 485.159 457.849 485.864C457.087 486.569 456.054 486.966 454.977 486.966H219.87C218.793 486.966 217.76 486.57 216.999 485.864C216.238 485.159 215.81 484.203 215.81 483.206V329.239C215.81 328.241 216.238 327.285 216.999 326.58C217.761 325.874 218.794 325.478 219.871 325.478H219.871Z" fill="white"/>
<path d="M484.887 225.672H208.24V203.952C208.24 202.785 208.489 201.63 208.971 200.552C209.453 199.474 210.16 198.495 211.051 197.67C211.942 196.845 213 196.19 214.164 195.744C215.328 195.297 216.576 195.067 217.836 195.067H475.289C476.549 195.067 477.797 195.297 478.961 195.743C480.125 196.19 481.183 196.844 482.074 197.669C482.965 198.494 483.672 199.474 484.154 200.552C484.637 201.63 484.885 202.785 484.885 203.952L484.887 225.672Z" fill="#2D6FAB"/>
<path d="M475.748 225.672H199.102V203.952C199.102 201.596 200.113 199.336 201.912 197.67C203.712 196.004 206.152 195.067 208.697 195.067H466.151C468.696 195.067 471.136 196.003 472.936 197.67C474.736 199.336 475.747 201.596 475.747 203.952L475.748 225.672Z" fill="#3789DB"/>
<path d="M251.974 210.37C251.974 209.44 252.271 208.531 252.829 207.758C253.387 206.985 254.18 206.382 255.107 206.026C256.035 205.67 257.056 205.577 258.041 205.758C259.025 205.939 259.93 206.387 260.64 207.044C261.35 207.702 261.834 208.539 262.03 209.451C262.226 210.363 262.126 211.308 261.741 212.167C261.357 213.027 260.707 213.761 259.872 214.277C259.037 214.794 258.055 215.07 257.051 215.07C255.705 215.07 254.413 214.575 253.461 213.693C252.509 212.812 251.974 211.616 251.974 210.37Z" fill="white"/>
<path d="M232.441 210.37C232.441 209.44 232.739 208.531 233.296 207.758C233.854 206.985 234.647 206.383 235.575 206.027C236.502 205.672 237.523 205.578 238.508 205.76C239.492 205.941 240.397 206.389 241.107 207.046C241.817 207.704 242.3 208.541 242.496 209.453C242.692 210.365 242.591 211.31 242.207 212.169C241.822 213.028 241.172 213.762 240.337 214.278C239.502 214.794 238.521 215.07 237.517 215.07C236.85 215.07 236.19 214.948 235.574 214.712C234.958 214.476 234.398 214.13 233.927 213.693C233.456 213.257 233.082 212.739 232.827 212.168C232.572 211.598 232.441 210.987 232.441 210.37Z" fill="white"/>
<path d="M212.905 210.37C212.905 209.44 213.203 208.531 213.761 207.758C214.319 206.985 215.112 206.383 216.039 206.027C216.967 205.672 217.987 205.578 218.972 205.76C219.957 205.941 220.861 206.389 221.571 207.046C222.281 207.703 222.764 208.541 222.96 209.452C223.156 210.364 223.056 211.309 222.672 212.168C222.287 213.027 221.637 213.761 220.802 214.278C219.967 214.794 218.986 215.07 217.982 215.07C216.636 215.07 215.345 214.574 214.393 213.693C213.441 212.812 212.906 211.616 212.905 210.37Z" fill="white"/>
<path d="M451.557 206.934L454.07 204.607L457.659 207.93L461.25 204.607L463.762 206.934L460.172 210.258L463.762 213.581L461.249 215.906L457.659 212.583L454.07 215.906L451.557 213.581L455.148 210.258L451.557 206.934Z" fill="white"/>
<path d="M390.852 421.266H299.1C298.838 421.266 298.587 421.17 298.402 420.998C298.217 420.827 298.113 420.595 298.113 420.352C298.113 420.11 298.217 419.877 298.402 419.706C298.587 419.535 298.838 419.438 299.1 419.438H390.851C390.981 419.438 391.109 419.462 391.229 419.508C391.349 419.554 391.458 419.621 391.549 419.706C391.641 419.791 391.714 419.891 391.763 420.002C391.813 420.113 391.839 420.232 391.839 420.352C391.839 420.472 391.813 420.591 391.764 420.702C391.714 420.812 391.641 420.913 391.55 420.998C391.458 421.083 391.349 421.15 391.23 421.196C391.11 421.242 390.982 421.266 390.852 421.266Z" fill="#D1D1D1"/>
<path d="M282.399 421.266H260.913C260.652 421.266 260.401 421.17 260.216 420.998C260.031 420.827 259.927 420.595 259.927 420.352C259.927 420.11 260.031 419.877 260.216 419.706C260.401 419.535 260.652 419.438 260.913 419.438H282.399C282.661 419.438 282.912 419.535 283.097 419.706C283.282 419.877 283.386 420.11 283.386 420.352C283.386 420.595 283.282 420.827 283.097 420.998C282.912 421.17 282.661 421.266 282.399 421.266H282.399Z" fill="#D1D1D1"/>
<path d="M390.851 436.093H341.976C341.847 436.093 341.718 436.07 341.598 436.024C341.479 435.978 341.37 435.911 341.278 435.826C341.186 435.741 341.114 435.641 341.064 435.53C341.014 435.419 340.989 435.3 340.989 435.18C340.989 435.06 341.014 434.941 341.064 434.83C341.113 434.719 341.186 434.619 341.278 434.534C341.369 434.449 341.478 434.382 341.598 434.336C341.717 434.29 341.846 434.266 341.975 434.266H390.851C391.113 434.266 391.364 434.362 391.549 434.533C391.734 434.705 391.838 434.937 391.838 435.18C391.838 435.422 391.734 435.654 391.549 435.826C391.364 435.997 391.113 436.093 390.851 436.093Z" fill="#D1D1D1"/>
<path d="M327.473 436.093H260.913C260.652 436.093 260.401 435.997 260.216 435.826C260.031 435.654 259.927 435.422 259.927 435.18C259.927 434.937 260.031 434.705 260.216 434.533C260.401 434.362 260.652 434.266 260.913 434.266H327.473C327.735 434.266 327.986 434.362 328.171 434.533C328.356 434.705 328.46 434.937 328.46 435.18C328.46 435.422 328.356 435.654 328.171 435.826C327.986 435.997 327.735 436.093 327.473 436.093Z" fill="#D1D1D1"/>
<path d="M417.777 450.3H326.026C325.765 450.3 325.514 450.203 325.329 450.032C325.144 449.861 325.04 449.629 325.04 449.387C325.04 449.144 325.144 448.912 325.329 448.741C325.514 448.57 325.765 448.474 326.026 448.474H417.777C418.038 448.474 418.289 448.57 418.474 448.741C418.659 448.912 418.763 449.144 418.763 449.387C418.763 449.629 418.659 449.861 418.474 450.032C418.289 450.203 418.038 450.3 417.777 450.3Z" fill="#D1D1D1"/>
<path d="M309.324 450.3H272.176C271.914 450.3 271.663 450.204 271.478 450.033C271.293 449.862 271.189 449.63 271.189 449.387C271.189 449.145 271.292 448.913 271.477 448.742C271.662 448.57 271.912 448.474 272.174 448.474H309.324C309.586 448.474 309.837 448.57 310.022 448.741C310.207 448.912 310.31 449.144 310.31 449.387C310.31 449.629 310.207 449.861 310.022 450.032C309.837 450.203 309.586 450.3 309.324 450.3H309.324Z" fill="#D1D1D1"/>
<path d="M417.777 465.125H356.852C356.591 465.125 356.34 465.029 356.155 464.857C355.97 464.686 355.866 464.454 355.866 464.212C355.866 463.97 355.969 463.738 356.154 463.566C356.339 463.395 356.59 463.299 356.851 463.299H417.777C418.038 463.299 418.289 463.395 418.474 463.566C418.659 463.737 418.763 463.969 418.763 464.212C418.763 464.454 418.659 464.686 418.474 464.857C418.289 465.028 418.038 465.125 417.777 465.125Z" fill="#D1D1D1"/>
<path d="M342.35 465.125H272.175C271.913 465.125 271.662 465.028 271.478 464.857C271.293 464.686 271.189 464.454 271.189 464.212C271.189 463.969 271.293 463.737 271.478 463.566C271.662 463.395 271.913 463.299 272.175 463.299H342.35C342.611 463.299 342.862 463.395 343.047 463.566C343.232 463.737 343.336 463.969 343.336 464.212C343.336 464.454 343.232 464.686 343.047 464.857C342.862 465.028 342.611 465.125 342.35 465.125Z" fill="#D1D1D1"/>
<path d="M439.263 458.056C438.586 458.062 437.915 458.186 437.288 458.422C436.812 458.65 436.417 458.999 436.148 459.427C435.802 459.971 435.573 460.572 435.475 461.197C435.357 462.112 435.309 463.033 435.331 463.955C435.383 465.462 435.279 466.97 435.019 468.458C434.854 469.231 434.452 469.944 433.86 470.511C433.154 471.098 432.304 471.517 431.383 471.732C430.254 471.971 429.096 472.071 427.938 472.031H426.986L426.987 468.043C427.832 468.091 428.68 468.014 429.499 467.818C429.857 467.696 430.163 467.469 430.369 467.171C430.593 466.721 430.692 466.227 430.656 465.733C430.663 465.058 430.714 463.767 430.81 461.861C430.829 460.923 430.992 459.991 431.294 459.094C431.526 458.454 431.882 457.857 432.344 457.333C432.819 456.822 433.387 456.392 434.022 456.062C433.282 455.65 432.626 455.122 432.083 454.501C431.476 453.663 431.084 452.708 430.936 451.708C430.744 450.008 430.648 448.3 430.647 446.591C430.682 446.028 430.6 445.464 430.405 444.929C430.23 444.631 429.943 444.404 429.598 444.29C428.746 444.091 427.865 444.015 426.987 444.065L426.986 440.094H427.938C429.188 440.057 430.437 440.174 431.653 440.442C432.477 440.655 433.226 441.065 433.824 441.631C434.419 442.204 434.832 442.916 435.018 443.692C435.269 444.96 435.374 446.25 435.331 447.539C435.274 448.868 435.364 450.198 435.602 451.51C435.768 452.249 436.19 452.917 436.805 453.413C437.536 453.851 438.391 454.079 439.262 454.069L439.263 458.056Z" fill="#A1C0CF"/>
<path d="M238.877 425.771C239.749 425.781 240.604 425.553 241.336 425.116C241.95 424.619 242.372 423.951 242.539 423.213C242.776 421.901 242.866 420.571 242.808 419.242C242.765 417.953 242.87 416.663 243.121 415.395C243.308 414.619 243.721 413.907 244.315 413.334C244.914 412.769 245.663 412.359 246.486 412.145C247.703 411.877 248.952 411.76 250.201 411.797H251.152L251.153 415.769C250.275 415.719 249.394 415.795 248.541 415.994C248.196 416.107 247.909 416.334 247.734 416.632C247.54 417.167 247.458 417.731 247.492 418.294C247.491 420.004 247.395 421.712 247.205 423.413C247.055 424.412 246.662 425.367 246.056 426.205C245.513 426.826 244.857 427.354 244.118 427.766C244.753 428.096 245.321 428.526 245.796 429.038C246.258 429.561 246.613 430.157 246.845 430.798C247.146 431.695 247.309 432.627 247.329 433.566C247.427 435.472 247.479 436.762 247.483 437.437C247.449 437.931 247.547 438.425 247.77 438.875C247.976 439.172 248.281 439.4 248.639 439.522C249.459 439.717 250.308 439.793 251.153 439.746V443.735H250.202C249.044 443.775 247.886 443.674 246.756 443.435C245.835 443.221 244.985 442.802 244.278 442.214C243.687 441.647 243.285 440.934 243.121 440.161C242.861 438.673 242.756 437.166 242.808 435.659C242.831 434.737 242.783 433.815 242.665 432.9C242.565 432.275 242.336 431.674 241.99 431.13C241.722 430.701 241.327 430.352 240.851 430.125C240.224 429.889 239.554 429.765 238.877 429.76L238.877 425.771Z" fill="#A1C0CF"/>
<path d="M383.918 347.819H292.166C291.904 347.819 291.653 347.723 291.468 347.552C291.283 347.38 291.179 347.148 291.179 346.906C291.179 346.663 291.283 346.431 291.468 346.26C291.653 346.088 291.904 345.992 292.166 345.992H383.918C384.179 345.993 384.429 346.089 384.614 346.261C384.798 346.432 384.902 346.664 384.902 346.906C384.902 347.147 384.798 347.379 384.614 347.551C384.429 347.722 384.179 347.819 383.918 347.819Z" fill="#D1D1D1"/>
<path d="M275.465 347.819H253.978C253.849 347.819 253.72 347.796 253.601 347.75C253.481 347.704 253.372 347.636 253.281 347.552C253.096 347.38 252.992 347.148 252.992 346.905C252.992 346.663 253.096 346.431 253.281 346.259C253.466 346.088 253.718 345.992 253.979 345.992H275.465C275.727 345.992 275.978 346.088 276.163 346.26C276.348 346.431 276.452 346.663 276.452 346.906C276.452 347.148 276.348 347.38 276.163 347.552C275.978 347.723 275.727 347.819 275.465 347.819Z" fill="#D1D1D1"/>
<path d="M383.918 362.647H335.042C334.78 362.647 334.53 362.551 334.345 362.379C334.16 362.208 334.056 361.976 334.056 361.734C334.056 361.492 334.16 361.259 334.345 361.088C334.53 360.917 334.78 360.821 335.042 360.821H383.918C384.179 360.821 384.43 360.917 384.615 361.088C384.8 361.259 384.904 361.492 384.904 361.734C384.904 361.976 384.8 362.208 384.615 362.379C384.43 362.551 384.179 362.647 383.918 362.647Z" fill="#D1D1D1"/>
<path d="M320.54 362.647H253.978C253.717 362.647 253.466 362.55 253.281 362.379C253.096 362.208 252.993 361.976 252.993 361.733C252.993 361.491 253.097 361.259 253.282 361.088C253.467 360.917 253.718 360.821 253.979 360.821H320.54C320.801 360.821 321.052 360.917 321.237 361.088C321.422 361.259 321.526 361.492 321.526 361.734C321.526 361.976 321.422 362.208 321.237 362.379C321.052 362.551 320.801 362.647 320.54 362.647Z" fill="#D1D1D1"/>
<path d="M410.842 376.853H319.092C318.831 376.853 318.58 376.757 318.395 376.586C318.21 376.414 318.106 376.182 318.106 375.94C318.106 375.698 318.21 375.466 318.395 375.294C318.58 375.123 318.831 375.027 319.092 375.027H410.842C411.104 375.027 411.355 375.123 411.54 375.294C411.725 375.466 411.828 375.698 411.828 375.94C411.828 376.182 411.725 376.414 411.54 376.586C411.355 376.757 411.104 376.853 410.842 376.853Z" fill="#D1D1D1"/>
<path d="M302.391 376.853H265.241C264.979 376.853 264.728 376.757 264.543 376.586C264.358 376.414 264.255 376.182 264.255 375.94C264.255 375.698 264.358 375.466 264.543 375.294C264.728 375.123 264.979 375.027 265.241 375.027H302.391C302.653 375.027 302.903 375.123 303.088 375.294C303.273 375.466 303.377 375.698 303.377 375.94C303.377 376.182 303.273 376.414 303.088 376.586C302.903 376.757 302.653 376.853 302.391 376.853Z" fill="#D1D1D1"/>
<path d="M410.842 391.678H349.918C349.657 391.678 349.406 391.582 349.221 391.411C349.036 391.239 348.932 391.007 348.932 390.765C348.932 390.523 349.036 390.291 349.221 390.119C349.406 389.948 349.657 389.852 349.918 389.852H410.842C411.104 389.852 411.355 389.948 411.54 390.12C411.724 390.291 411.828 390.523 411.828 390.765C411.828 391.008 411.724 391.24 411.539 391.411C411.354 391.582 411.103 391.678 410.842 391.678Z" fill="#D1D1D1"/>
<path d="M335.415 391.678H265.241C264.979 391.678 264.728 391.582 264.543 391.411C264.358 391.239 264.255 391.007 264.255 390.765C264.255 390.523 264.358 390.291 264.543 390.119C264.728 389.948 264.979 389.852 265.241 389.852H335.416C335.677 389.852 335.928 389.948 336.113 390.12C336.298 390.291 336.402 390.523 336.401 390.765C336.401 391.008 336.297 391.24 336.112 391.411C335.927 391.582 335.677 391.678 335.415 391.678Z" fill="#D1D1D1"/>
<path d="M432.329 384.61C431.652 384.616 430.981 384.74 430.353 384.975C429.878 385.203 429.483 385.552 429.214 385.981C428.868 386.525 428.64 387.126 428.542 387.75C428.422 388.665 428.374 389.587 428.398 390.508C428.449 392.015 428.344 393.523 428.084 395.012C427.92 395.785 427.518 396.497 426.927 397.063C426.221 397.652 425.371 398.071 424.45 398.285C423.321 398.524 422.163 398.624 421.006 398.584H420.052L420.053 394.597C420.898 394.644 421.745 394.568 422.565 394.372C422.924 394.251 423.23 394.023 423.435 393.724C423.659 393.275 423.758 392.781 423.723 392.287C423.728 391.611 423.779 390.321 423.875 388.415C423.896 387.476 424.059 386.544 424.36 385.647C424.593 385.006 424.949 384.41 425.411 383.887C425.885 383.375 426.453 382.945 427.088 382.615C426.349 382.203 425.693 381.675 425.15 381.054C424.543 380.217 424.15 379.262 424.001 378.262C423.811 376.562 423.715 374.853 423.714 373.144C423.747 372.581 423.665 372.017 423.471 371.483C423.296 371.185 423.009 370.957 422.664 370.844C421.812 370.644 420.931 370.568 420.053 370.618V366.647H421.004C422.254 366.61 423.503 366.727 424.719 366.997C425.543 367.208 426.292 367.618 426.89 368.185C427.485 368.757 427.898 369.469 428.084 370.244C428.335 371.513 428.44 372.803 428.398 374.092C428.34 375.421 428.431 376.752 428.667 378.063C428.833 378.802 429.256 379.47 429.87 379.965C430.602 380.404 431.457 380.632 432.329 380.621V384.61Z" fill="#A1C0CF"/>
<path d="M231.944 352.326C232.816 352.335 233.671 352.106 234.403 351.668C235.017 351.172 235.438 350.505 235.604 349.766C235.842 348.455 235.933 347.124 235.874 345.795C235.832 344.506 235.937 343.217 236.188 341.948C236.375 341.173 236.787 340.461 237.38 339.887C237.979 339.321 238.729 338.912 239.553 338.7C240.769 338.43 242.018 338.312 243.267 338.35H244.219V342.323C243.341 342.272 242.461 342.348 241.608 342.547C241.263 342.66 240.975 342.888 240.8 343.186C240.607 343.72 240.524 344.284 240.558 344.847C240.557 346.557 240.462 348.265 240.271 349.965C240.122 350.965 239.73 351.92 239.123 352.758C238.58 353.378 237.924 353.907 237.185 354.319C237.82 354.649 238.388 355.08 238.863 355.591C239.324 356.115 239.68 356.711 239.912 357.352C240.213 358.249 240.376 359.18 240.396 360.119C240.493 362.024 240.544 363.314 240.548 363.99C240.514 364.484 240.613 364.978 240.836 365.428C241.042 365.726 241.348 365.953 241.707 366.075C242.526 366.272 243.374 366.348 244.219 366.301L244.22 370.289H243.268C242.11 370.328 240.951 370.227 239.822 369.988C238.901 369.774 238.051 369.355 237.345 368.768C236.753 368.201 236.351 367.488 236.187 366.715C235.927 365.226 235.822 363.718 235.875 362.212C235.897 361.29 235.849 360.368 235.731 359.453C235.631 358.829 235.402 358.228 235.058 357.684C234.789 357.255 234.394 356.906 233.918 356.679C233.29 356.443 232.62 356.319 231.943 356.313L231.944 352.326Z" fill="#A1C0CF"/>
<path d="M320.414 305.675H449.042C451.763 305.675 454.372 304.674 456.296 302.893C458.22 301.111 459.3 298.695 459.3 296.176V255.121C459.3 252.602 458.22 250.186 456.296 248.404C454.372 246.623 451.763 245.622 449.042 245.622H320.414C317.693 245.622 315.084 246.623 313.16 248.404C311.236 250.185 310.155 252.601 310.155 255.121L310.156 296.176C310.155 297.423 310.421 298.659 310.936 299.811C311.452 300.964 312.207 302.011 313.16 302.893C314.112 303.775 315.243 304.475 316.488 304.952C317.733 305.43 319.067 305.675 320.414 305.675Z" fill="#D1D1D1"/>
<path d="M315.847 305.675H444.475C447.196 305.675 449.805 304.674 451.729 302.893C453.652 301.111 454.733 298.695 454.733 296.176V255.121C454.733 252.602 453.652 250.186 451.729 248.404C449.805 246.623 447.196 245.622 444.475 245.622H315.846C313.125 245.622 310.516 246.623 308.592 248.404C306.669 250.186 305.588 252.602 305.588 255.121L305.588 296.176C305.588 297.423 305.853 298.659 306.369 299.811C306.884 300.964 307.64 302.011 308.593 302.893C309.545 303.775 310.676 304.475 311.921 304.952C313.166 305.43 314.5 305.675 315.847 305.675Z" fill="white"/>
<path d="M445.49 254.071H371.632V266.608H445.49V254.071Z" fill="#FFCE45"/>
<path d="M385.454 274.694H371.632V276.603H385.454V274.694Z" fill="#D1D1D1"/>
<path d="M445.489 274.694H390.378V276.603H445.489V274.694Z" fill="#D1D1D1"/>
<path d="M408.084 279.214H371.632V281.123H408.084V279.214Z" fill="#D1D1D1"/>
<path d="M424.844 279.214H411.023V281.123H424.844V279.214Z" fill="#D1D1D1"/>
<path d="M445.49 279.214H428.274V281.123H445.49V279.214Z" fill="#D1D1D1"/>
<path d="M415.23 283.735H371.633V285.643H415.23V283.735Z" fill="#D1D1D1"/>
<path d="M445.489 283.735H419.17V285.643H445.489V283.735Z" fill="#D1D1D1"/>
<path d="M445.49 288.356H411.022V290.264H445.49V288.356Z" fill="#D1D1D1"/>
<path d="M380.15 288.254H371.632V290.163H380.15V288.254Z" fill="#D1D1D1"/>
<path d="M407.549 288.254H383.308V290.163H407.549V288.254Z" fill="#D1D1D1"/>
<path d="M385.454 292.775H371.632V294.683H385.454V292.775Z" fill="#D1D1D1"/>
<path d="M445.49 292.775H390.378V294.683H445.49V292.775Z" fill="#D1D1D1"/>
<path d="M232.14 306.298H281.962C283.348 306.298 284.72 306.045 286.001 305.554C287.281 305.062 288.445 304.342 289.425 303.435C290.405 302.527 291.182 301.45 291.713 300.264C292.243 299.078 292.516 297.807 292.516 296.524L292.516 254.28C292.516 252.997 292.243 251.726 291.713 250.54C291.183 249.354 290.405 248.277 289.425 247.369C288.445 246.462 287.281 245.742 286 245.25C284.72 244.759 283.347 244.506 281.961 244.506H232.14C230.754 244.507 229.381 244.759 228.1 245.251C226.82 245.742 225.656 246.462 224.676 247.369C223.696 248.277 222.919 249.354 222.388 250.54C221.858 251.726 221.585 252.997 221.585 254.28V296.524C221.585 297.807 221.858 299.078 222.388 300.264C222.919 301.45 223.696 302.527 224.676 303.435C225.656 304.343 226.82 305.063 228.1 305.554C229.381 306.045 230.754 306.298 232.14 306.298Z" fill="#D1D1D1"/>
<path d="M226.749 306.298H276.571C277.957 306.298 279.329 306.045 280.61 305.554C281.89 305.062 283.054 304.342 284.034 303.435C285.014 302.527 285.791 301.45 286.322 300.264C286.852 299.078 287.125 297.807 287.124 296.524L287.125 254.28C287.125 252.997 286.852 251.726 286.322 250.54C285.792 249.354 285.014 248.277 284.034 247.369C283.054 246.462 281.89 245.742 280.609 245.25C279.329 244.759 277.956 244.506 276.57 244.506H226.75C225.363 244.506 223.991 244.759 222.71 245.25C221.429 245.742 220.266 246.462 219.285 247.369C218.305 248.277 217.528 249.354 216.997 250.54C216.467 251.726 216.194 252.997 216.194 254.28L216.195 296.524C216.195 297.807 216.467 299.078 216.998 300.264C217.528 301.45 218.305 302.527 219.285 303.435C220.265 304.342 221.429 305.062 222.709 305.554C223.99 306.045 225.363 306.298 226.749 306.298Z" fill="white"/>
<path d="M365.405 257.155L365.405 292.817C365.403 293.632 365.052 294.412 364.431 294.987C363.809 295.563 362.966 295.887 362.087 295.889H320.551C319.672 295.887 318.83 295.563 318.208 294.987C317.586 294.412 317.236 293.631 317.234 292.817V257.155C317.234 256.339 317.583 255.556 318.205 254.978C318.827 254.4 319.671 254.074 320.552 254.071H362.088C362.969 254.074 363.813 254.4 364.435 254.978C365.057 255.556 365.405 256.339 365.405 257.155Z" fill="#C5ECFD"/>
<path d="M365.405 275.185L365.405 292.817C365.403 293.632 365.052 294.412 364.431 294.987C363.809 295.563 362.966 295.887 362.087 295.889H320.551C319.672 295.887 318.83 295.563 318.208 294.987C317.586 294.412 317.236 293.631 317.234 292.817V287.831L324.459 280.384C324.604 280.233 324.781 280.111 324.98 280.027C325.178 279.942 325.393 279.897 325.611 279.893C325.83 279.889 326.046 279.928 326.248 280.005C326.449 280.083 326.631 280.199 326.782 280.345L336.33 289.485C336.48 289.629 336.661 289.743 336.86 289.821C337.06 289.898 337.274 289.937 337.491 289.934C337.707 289.932 337.921 289.889 338.118 289.807C338.316 289.726 338.493 289.608 338.64 289.46L358.261 269.639C358.417 269.484 358.607 269.362 358.819 269.281C359.03 269.2 359.258 269.161 359.487 269.168C359.716 269.175 359.941 269.228 360.146 269.322C360.351 269.416 360.533 269.549 360.678 269.713L365.405 275.185Z" fill="#2D6FAB"/>
<path d="M337.609 264.859C337.609 263.793 337.267 262.752 336.628 261.867C335.989 260.981 335.08 260.291 334.017 259.883C332.954 259.476 331.785 259.369 330.656 259.577C329.528 259.785 328.492 260.298 327.678 261.052C326.865 261.805 326.311 262.765 326.087 263.809C325.863 264.854 325.978 265.937 326.418 266.921C326.859 267.905 327.604 268.746 328.561 269.338C329.518 269.93 330.642 270.246 331.793 270.245C332.557 270.245 333.313 270.106 334.019 269.835C334.725 269.565 335.366 269.168 335.906 268.668C336.446 268.167 336.874 267.574 337.167 266.92C337.459 266.266 337.609 265.566 337.609 264.859Z" fill="#FFCE45"/>
<path d="M238.254 258.646H245.03L244.994 278.38C244.989 280.958 244.741 282.942 244.248 284.332C243.61 286.118 242.347 287.656 240.659 288.703C238.926 289.801 236.644 290.35 233.812 290.35C230.488 290.35 227.933 289.489 226.147 287.767C224.357 286.045 223.458 283.517 223.45 280.185L229.858 279.506C229.931 281.292 230.212 282.554 230.701 283.292C231.038 283.83 231.53 284.271 232.12 284.567C232.711 284.864 233.379 285.003 234.05 284.97C235.567 284.97 236.64 284.57 237.268 283.769C237.896 282.968 238.213 281.306 238.217 278.783L238.254 258.646Z" fill="#FF5847"/>
<path d="M250.503 279.676L257.117 279.08C257.51 281.135 258.315 282.644 259.532 283.609C260.746 284.574 262.388 285.056 264.456 285.056C266.644 285.056 268.294 284.627 269.406 283.769C269.915 283.419 270.329 282.966 270.619 282.445C270.908 281.924 271.065 281.348 271.077 280.762C271.097 280.077 270.849 279.408 270.378 278.879C269.705 278.24 268.863 277.775 267.936 277.529C267.142 277.273 265.328 276.819 262.497 276.168C258.853 275.33 256.299 274.302 254.832 273.084C253.196 271.786 252.127 269.98 251.828 268.005C251.529 266.029 252.02 264.021 253.209 262.357C254.235 260.935 255.702 259.835 257.417 259.2C259.524 258.429 261.778 258.06 264.044 258.115C268.269 258.115 271.448 258.972 273.581 260.687C275.714 262.402 276.832 264.691 276.933 267.555L270.135 267.832C269.847 266.231 269.226 265.079 268.27 264.377C267.315 263.675 265.88 263.324 263.966 263.323C261.991 263.323 260.444 263.699 259.326 264.451C258.985 264.664 258.707 264.952 258.518 265.29C258.328 265.628 258.233 266.004 258.241 266.385C258.241 266.751 258.332 267.113 258.507 267.441C258.682 267.77 258.936 268.057 259.25 268.28C260.105 268.946 262.185 269.64 265.492 270.363C268.798 271.085 271.242 271.833 272.825 272.606C274.352 273.329 275.636 274.425 276.54 275.775C277.462 277.31 277.922 279.046 277.872 280.801C277.822 282.557 277.265 284.268 276.258 285.756C275.169 287.327 273.577 288.543 271.704 289.234C269.365 290.054 266.875 290.441 264.376 290.372C260.121 290.372 256.854 289.461 254.576 287.64C252.298 285.818 250.941 283.163 250.503 279.676Z" fill="#FF5847"/>
<path opacity="0.11" d="M295.808 492.032C294.872 491.646 293.968 491.199 293.102 490.692C293.093 490.612 286.611 422.21 282.08 415.85C281.73 415.412 281.308 415.027 280.83 414.709H294.215V412.251L293.984 412.179L301.64 379.032C301.732 378.69 301.74 378.332 301.664 377.987C301.588 377.641 301.43 377.315 301.202 377.033C300.973 376.75 300.679 376.519 300.342 376.354C300.005 376.19 299.632 376.097 299.251 376.083H252.602C244.046 362.396 231.243 333.222 221.463 331.731C221.163 331.37 220.839 331.026 220.495 330.7V330.692C220.495 330.692 219.262 329.257 217.72 329.082C217.669 328.424 217.626 327.544 217.626 326.514C217.626 325.76 217.652 324.928 217.711 324.032C217.737 323.635 217.78 323.215 217.832 322.802C219.041 322.323 220.112 321.587 220.958 320.653C226.448 314.127 223.629 286.865 222.388 284.517C227.063 285.5 229.555 271.322 224.443 265.565C220.05 270.148 208.968 268.658 199.102 269.99V492.983C199.103 494.827 199.895 496.596 201.303 497.9C202.711 499.204 204.621 499.937 206.613 499.938H213.473C218.482 499.677 223.681 499.296 229.068 498.796C234.951 498.285 240.786 497.384 246.53 496.1V497.678H267.906V495.91C267.906 495.91 263.23 494.188 258.485 492.238C271.769 486.338 276.171 477.203 275.999 465.602L285.617 492.262H285.626C285.133 493.455 284.713 494.673 284.366 495.91V497.678H305.734V495.91C305.734 495.91 300.733 494.062 295.808 492.032ZM235.619 396.954C235.311 396.811 234.985 396.676 234.651 396.557C234.395 395.859 234.12 395.074 233.821 394.226C233.955 394.361 234.104 394.483 234.266 394.591C234.756 395.003 235.326 395.326 235.945 395.542L235.619 396.954ZM262.485 437.332C262.725 435.238 262.922 433.265 263.093 431.432C263.274 431.418 263.452 431.384 263.624 431.329L267.658 442.502C266.043 440.688 264.316 438.962 262.485 437.332L262.485 437.332Z" fill="black"/>
<path d="M538.657 95.9178L538.658 95.9116L538.576 95.8354C538.53 95.7912 538.483 95.7478 538.436 95.7056L535.467 92.9596L535.42 94.412C535.251 94.3962 535.082 94.3882 534.912 94.388H391.095C390.427 94.388 389.766 94.5098 389.148 94.7466C388.531 94.9833 387.97 95.3303 387.498 95.7678C387.025 96.2052 386.65 96.7246 386.395 97.2961C386.139 97.8677 386.007 98.4804 386.007 99.099V153.555C386.007 154.805 386.543 156.003 387.498 156.886C388.452 157.77 389.746 158.266 391.095 158.266H399.86L395.42 168.505L386.43 180.496L389.13 183.015L414.61 158.266H534.912C536.261 158.266 537.555 157.77 538.509 156.886C539.464 156.003 540 154.805 540 153.555V99.099C540 97.92 539.521 96.7842 538.657 95.9178Z" fill="#D4AC3B"/>
<path d="M386.516 91.8693H534.093C534.515 91.8693 534.932 91.9461 535.321 92.0954C535.71 92.2446 536.064 92.4634 536.362 92.7392C536.66 93.015 536.896 93.3425 537.057 93.7028C537.218 94.0632 537.301 94.4494 537.301 94.8395V152.777C537.301 153.564 536.963 154.32 536.362 154.877C535.76 155.434 534.944 155.747 534.093 155.747H386.517C385.666 155.747 384.85 155.434 384.248 154.877C383.646 154.32 383.308 153.564 383.308 152.776V94.8395C383.308 94.4494 383.391 94.0632 383.552 93.7028C383.714 93.3425 383.95 93.015 384.248 92.7392C384.546 92.4634 384.899 92.2446 385.289 92.0954C385.678 91.9461 386.095 91.8693 386.516 91.8693Z" fill="#FFCE45"/>
<path d="M397.638 154.648L386.43 180.496L415.38 152.378L397.638 154.648Z" fill="#FFCE45"/>
<path d="M404.219 137.43L404.237 107.537L410.755 107.538L410.75 119.307L423.522 119.312L423.527 107.545L430.047 107.548L430.032 137.442L423.511 137.439L423.52 124.369L410.748 124.362L410.74 137.433L404.219 137.43Z" fill="#F7F7F7"/>
<path d="M444.038 137.447L444.05 112.611L434.472 112.606L434.473 107.55L460.131 107.561L460.128 112.619L450.57 112.614L450.558 137.452L444.038 137.447Z" fill="#F7F7F7"/>
<path d="M464.234 137.458L464.249 107.564L474.007 107.567L479.853 127.962L485.658 107.575L495.435 107.577L495.42 137.472L489.363 137.47L489.376 113.937L482.955 137.467L476.675 137.462L470.302 113.928L470.291 137.461L464.234 137.458Z" fill="#F7F7F7"/>
<path d="M502.07 137.475L502.085 107.825L508.606 107.828L508.592 132.44L524.802 132.449L524.798 137.486L502.07 137.475Z" fill="#F7F7F7"/>
<path d="M278.206 53.8155V53.8151L272.192 50.4133L267.638 52.9242H163.21C161.677 52.9242 160.207 53.488 159.123 54.4915C158.04 55.4951 157.431 56.8561 157.431 58.2753V113.688L153.848 115.663L159.274 118.639C159.886 119.17 160.617 119.571 161.413 119.813L161.42 119.817L161.424 119.816C162.001 119.991 162.603 120.079 163.21 120.08H248.303L267.267 138.499L271.411 144.89L277.247 148.192L265.059 120.08H275.015C275.774 120.08 276.526 119.941 277.227 119.672C277.928 119.404 278.565 119.009 279.102 118.513C279.639 118.016 280.064 117.426 280.355 116.777C280.645 116.127 280.795 115.431 280.795 114.729V58.2753C280.795 57.3918 280.559 56.522 280.107 55.7437C279.655 54.9654 279.002 54.3029 278.206 53.8155Z" fill="#2D6FAB"/>
<path d="M269.178 49.6215H157.373C156.614 49.6214 155.862 49.7598 155.161 50.0286C154.46 50.2975 153.823 50.6916 153.286 51.1885C152.749 51.6854 152.324 52.2753 152.033 52.9246C151.743 53.5738 151.593 54.2697 151.593 54.9725V111.426C151.593 112.129 151.743 112.824 152.033 113.474C152.324 114.123 152.749 114.713 153.286 115.21C153.823 115.707 154.46 116.101 155.161 116.37C155.862 116.639 156.614 116.777 157.373 116.777H242.467L271.411 144.89L259.222 116.777H269.178C270.711 116.777 272.181 116.213 273.265 115.21C274.348 114.206 274.957 112.845 274.957 111.426V54.9725C274.957 53.5533 274.348 52.1923 273.265 51.1888C272.181 50.1853 270.711 49.6215 269.178 49.6215Z" fill="#3789DB"/>
<path d="M193.122 86.0466L198.92 87.7487C198.031 90.7421 196.553 92.9652 194.485 94.4178C192.418 95.871 189.795 96.5975 186.616 96.5973C182.683 96.5973 179.45 95.3533 176.918 92.8652C174.386 90.3774 173.12 86.9759 173.12 82.6606C173.12 78.0963 174.393 74.5514 176.939 72.0258C179.484 69.5001 182.831 68.2373 186.98 68.2375C190.603 68.2375 193.545 69.2289 195.808 71.2119C197.155 72.3843 198.166 74.068 198.839 76.2629L192.919 77.5724C192.646 76.2405 191.865 75.0437 190.72 74.1993C189.574 73.3549 188.139 72.9189 186.676 72.9706C185.665 72.9406 184.66 73.1218 183.735 73.5006C182.81 73.8795 181.989 74.4463 181.333 75.1591C179.965 76.6184 179.282 78.9817 179.282 82.249C179.282 85.7163 179.955 88.1856 181.303 89.6569C181.939 90.3711 182.743 90.9413 183.653 91.3239C184.563 91.7065 185.556 91.8913 186.556 91.8643C188.065 91.8918 189.529 91.3908 190.656 90.4614C191.801 89.5259 192.623 88.0543 193.122 86.0466Z" fill="white"/>
<path d="M202.536 87.2062L208.355 86.6828C208.705 88.491 209.415 89.8191 210.486 90.667C211.716 91.5645 213.256 92.0168 214.82 91.9394C216.746 91.9394 218.197 91.5621 219.174 90.8075C219.621 90.4995 219.985 90.1006 220.239 89.6417C220.493 89.1827 220.629 88.6759 220.638 88.1603C220.655 87.5578 220.436 86.9699 220.022 86.5051C219.428 85.944 218.687 85.5347 217.871 85.3171C217.17 85.0925 215.574 84.6935 213.082 84.1199C209.876 83.3838 207.627 82.4796 206.334 81.4072C205.47 80.7295 204.777 79.8837 204.306 78.9299C203.834 77.9761 203.596 76.9378 203.607 75.8889C203.606 74.4937 204.053 73.1297 204.89 71.9697C205.791 70.7187 207.08 69.75 208.587 69.1916C210.441 68.5139 212.424 68.1893 214.416 68.2375C218.133 68.2375 220.932 68.992 222.81 70.501C223.742 71.2531 224.489 72.1819 225 73.2244C225.51 74.2669 225.773 75.3989 225.77 76.5436L219.79 76.7868C219.534 75.3774 218.985 74.3641 218.143 73.7469C217.301 73.1293 216.038 72.8206 214.355 72.8207C212.916 72.7443 211.487 73.0914 210.274 73.8123C209.975 73.9996 209.731 74.2536 209.565 74.551C209.399 74.8485 209.316 75.1798 209.324 75.5145C209.325 75.8365 209.406 76.154 209.56 76.4426C209.714 76.7313 209.937 76.9833 210.213 77.1794C210.968 77.7661 212.8 78.3772 215.709 79.0128C217.937 79.4343 220.103 80.0967 222.164 80.9863C223.508 81.6233 224.639 82.5869 225.436 83.7737C226.251 85.1228 226.659 86.6495 226.618 88.1945C226.577 89.7394 226.089 91.2459 225.205 92.5565C224.249 93.9382 222.85 95.0078 221.205 95.615C219.148 96.3364 216.958 96.6765 214.76 96.6159C211.014 96.6159 208.139 95.8146 206.133 94.2122C204.126 92.6096 202.927 90.2743 202.536 87.2062Z" fill="white"/>
<path d="M230.134 87.2062L235.953 86.6828C236.302 88.491 237.013 89.8191 238.084 90.667C239.313 91.5645 240.854 92.0168 242.418 91.9394C244.344 91.9394 245.795 91.5621 246.772 90.8075C247.218 90.4995 247.583 90.1006 247.836 89.6417C248.09 89.1827 248.227 88.6759 248.236 88.1603C248.253 87.5578 248.034 86.9699 247.62 86.5051C247.025 85.944 246.284 85.5347 245.469 85.3171C244.768 85.0925 243.171 84.6935 240.68 84.1199C237.474 83.3838 235.225 82.4796 233.932 81.4072C233.067 80.7295 232.375 79.8837 231.903 78.9299C231.432 77.9761 231.193 76.9378 231.205 75.8889C231.204 74.4937 231.65 73.1297 232.488 71.9697C233.388 70.7187 234.678 69.75 236.185 69.1916C238.039 68.5139 240.021 68.1893 242.014 68.2375C245.731 68.2375 248.529 68.992 250.408 70.501C251.34 71.2531 252.087 72.1819 252.597 73.2244C253.108 74.2669 253.371 75.3989 253.368 76.5436L247.388 76.7868C247.131 75.3774 246.582 74.3641 245.741 73.7469C244.899 73.1293 243.636 72.8206 241.953 72.8207C240.513 72.7443 239.085 73.0914 237.872 73.8123C237.572 73.9996 237.328 74.2536 237.162 74.551C236.996 74.8485 236.914 75.1798 236.922 75.5145C236.923 75.8365 237.003 76.154 237.157 76.4426C237.312 76.7313 237.535 76.9833 237.811 77.1794C238.565 77.7661 240.397 78.3772 243.307 79.0128C245.534 79.4343 247.701 80.0967 249.762 80.9863C251.105 81.6233 252.237 82.5869 253.034 83.7737C253.848 85.1228 254.256 86.6495 254.216 88.1945C254.175 89.7394 253.687 91.2459 252.803 92.5565C251.847 93.9382 250.448 95.0078 248.802 95.615C246.746 96.3364 244.556 96.6765 242.357 96.6159C238.612 96.6159 235.737 95.8147 233.73 94.2122C231.723 92.6096 230.525 90.2743 230.134 87.2062Z" fill="white"/>
<path d="M160.934 163.296V163.296L156.131 160L152.495 162.433H82.4752C81.2513 162.433 80.0775 162.979 79.2122 163.951C78.3468 164.923 77.8606 166.242 77.8606 167.617V212.572L75 214.486L79.3327 217.37C79.8218 217.884 80.4048 218.272 81.0411 218.507L81.0466 218.51L81.0494 218.51C81.5098 218.679 81.9909 218.765 82.4752 218.765H137.056L152.198 236.609L155.507 242.801L160.168 246L150.435 218.765H158.385C158.991 218.765 159.592 218.631 160.151 218.371C160.711 218.11 161.22 217.728 161.649 217.247C162.077 216.765 162.417 216.194 162.649 215.565C162.881 214.936 163 214.262 163 213.581V167.617C163 166.761 162.812 165.918 162.451 165.164C162.091 164.41 161.569 163.768 160.934 163.296Z" fill="#B83F33"/>
<path d="M154.338 159H77.6611C77.049 159 76.4429 159.135 75.8773 159.397C75.3118 159.659 74.798 160.042 74.3651 160.526C73.9323 161.01 73.589 161.585 73.3547 162.217C73.1205 162.849 73 163.527 73 164.211V210.413C72.9999 211.795 73.491 213.12 74.3651 214.098C75.2393 215.075 76.4249 215.624 77.6611 215.624H132.794L156.139 243L146.308 215.624H154.338C154.95 215.624 155.557 215.489 156.122 215.227C156.688 214.966 157.202 214.582 157.635 214.098C158.067 213.614 158.411 213.039 158.645 212.407C158.879 211.775 159 211.097 159 210.413V164.211C159 163.527 158.879 162.849 158.645 162.217C158.411 161.585 158.067 161.01 157.635 160.526C157.202 160.042 156.688 159.658 156.122 159.397C155.557 159.135 154.95 159 154.338 159Z" fill="#FF5847"/>
<path d="M88.0141 473.415C98.0887 494.385 134.739 504.528 195.895 498.794C238.999 494.759 245.953 478.95 241.785 455.796C238.381 436.921 202.23 419.391 202.23 419.391C191.823 392.6 168.937 360.163 137.764 361.023H137.741C134.069 361.132 130.428 361.673 126.904 362.633C109.448 367.307 98.1598 378.399 91.2299 391.982C88.9337 396.546 87.0847 401.291 85.705 406.161C78.274 432.048 82.3002 461.507 88.0141 473.415Z" fill="#FFCE45"/>
<path d="M126.913 440.68C126.913 440.68 158.904 420.581 195.897 423.744C195.897 423.744 162.451 404.388 126.913 440.68Z" fill="#D4AC3B"/>
<path d="M144.19 463.752C146.093 474.069 166.753 479.408 190.333 475.677C213.915 471.947 231.488 460.559 229.583 450.242C227.68 439.925 215.193 430.69 183.44 438.317C160.284 443.878 142.286 453.435 144.19 463.752Z" fill="#FFDE6F"/>
<path d="M161.42 377.579C157.754 367.678 143.534 363.224 129.661 367.63C115.787 372.036 107.514 383.633 111.183 393.534C114.849 403.434 124.885 411.929 142.942 403.481C156.109 397.322 165.088 387.479 161.42 377.579Z" fill="#FFDE6F"/>
<path d="M85.7066 406.165L85.705 406.161C85.7133 406.132 85.7226 406.103 85.7309 406.076C86.0604 404.933 86.4131 403.8 86.7889 402.675C86.8566 402.471 86.9302 402.272 86.9997 402.069C87.3183 401.136 87.6528 400.21 88.0033 399.291C88.1011 399.035 88.2015 398.781 88.3018 398.526C88.6581 397.621 89.0314 396.724 89.4217 395.835C89.5128 395.626 89.6015 395.417 89.6935 395.209C90.1828 394.12 90.6888 393.042 91.2299 391.982C98.1598 378.399 109.448 367.307 126.904 362.633C130.428 361.673 134.069 361.132 137.741 361.023H137.764C137.764 361.023 88.8973 367.535 91.1152 420.333C92.9444 463.882 123.805 489.415 165.976 491.077C246.946 494.269 241.785 455.796 241.785 455.796C245.953 478.95 238.999 494.759 195.895 498.794C134.739 504.528 98.0887 494.385 88.0141 473.415C82.3085 461.513 78.274 432.048 85.7066 406.165Z" fill="#D4AC3B"/>
<path d="M148.3 282.67C148.3 282.67 136.676 304.423 162.245 318.05L164.607 299.91L155.722 286.902L148.3 282.67Z" fill="#23100F"/>
<path d="M255.274 488.244C252.975 489.234 251.189 495.908 251.189 495.908H272.564C272.564 495.908 267.557 494.062 262.636 492.029C257.009 489.705 257.074 487.469 255.274 488.244Z" fill="#3C89D9"/>
<path d="M251.189 497.68H272.564V495.908H251.189V497.68Z" fill="#2D6FAB"/>
<path d="M217.441 488.244C215.142 489.234 213.355 495.908 213.355 495.908H234.731C234.731 495.908 229.724 494.062 224.803 492.029C219.176 489.705 219.242 487.469 217.441 488.244Z" fill="#3C89D9"/>
<path d="M213.355 497.68H234.731V495.908H213.355V497.68Z" fill="#2D6FAB"/>
<path d="M248.904 415.851C253.436 422.216 259.93 490.695 259.93 490.695L252.446 492.263L230.451 431.33C230.451 431.33 195.777 430.297 191.501 424.052C187.49 418.195 187.49 407.867 187.49 407.867C189.452 407.946 176.456 397.665 176.456 397.665C206.204 397.665 245.466 411.019 248.904 415.851Z" fill="#FF5847"/>
<path d="M230.451 431.33L252.446 492.263L254.984 491.703C254.984 491.703 237.401 423.837 234.915 418.021C230.39 407.439 195.146 400.172 195.146 400.172L211.407 429.575C211.407 429.575 228.324 432.096 230.451 431.33Z" fill="#B83F33"/>
<path d="M230 420.046C232.464 426.211 221.476 490.343 221.476 490.343L214.868 490.528L205.47 430.752C205.47 430.752 159.756 434.55 155.479 428.306C151.468 422.449 149.128 405.339 149.128 405.339C151.09 405.418 169.685 397.478 169.685 397.478C199.434 397.478 227.83 414.619 230 420.046Z" fill="#FF5847"/>
<path d="M209.596 426.993C212.06 433.16 218.193 490.436 218.193 490.436L214.868 490.528L205.47 430.752C205.47 430.752 159.756 434.55 155.479 428.306C151.468 422.449 149.128 405.339 149.128 405.339C151.09 405.418 169.685 397.478 169.685 397.478C142.581 442.569 207.426 421.567 209.596 426.993Z" fill="#B83F33"/>
<path d="M187.813 331.678C199.323 332.368 215.27 373.175 223.438 381.564C230.496 388.815 207.044 398.223 201.095 394.59C195.147 390.959 181.017 331.27 187.813 331.678Z" fill="#3C89D9"/>
<path d="M187.813 331.678C200.812 342.233 194.181 395.479 215.27 391.03C215.27 391.03 206.154 398.874 201.095 394.59C188.324 383.776 162.802 332.558 187.813 331.678Z" fill="#2D6FAB"/>
<path d="M186.711 314.639C186.467 315.213 186.243 315.75 186.075 316.254C185.616 317.576 185.265 318.928 185.024 320.299C184.779 321.533 184.617 322.779 184.537 324.032C184.371 326.178 184.422 328.334 184.687 330.472C173.288 335.679 160.932 328.51 160.932 328.51C161.507 326.848 161.946 325.147 162.245 323.424C162.755 320.614 163.099 317.78 163.275 314.935C163.289 314.878 163.296 314.82 163.293 314.761C163.304 314.721 163.311 314.68 163.314 314.639H186.711Z" fill="#FFB5AD"/>
<path d="M186.711 314.639C186.467 315.213 186.243 315.75 186.075 316.254C185.543 317.556 185.19 318.915 185.024 320.299C184.779 321.533 184.617 322.779 184.537 324.032C179.119 326.236 173.006 327.122 168.562 326.236C166.248 325.77 164.084 324.807 162.245 323.424C162.755 320.614 163.099 317.78 163.275 314.935C163.289 314.878 163.296 314.82 163.293 314.761C163.304 314.721 163.311 314.68 163.314 314.639H186.711Z" fill="#C48B86"/>
<path d="M160.244 325.741C160.244 325.741 145.122 334.999 139.497 339.051C139.497 339.051 150.121 398.942 148.716 416.881C148.716 416.881 194.181 409.648 202.931 400.389C202.931 400.389 194.181 378.978 194.181 363.355C194.181 347.73 192.619 333.553 185.744 329.503C185.744 329.503 175.243 335.868 160.244 325.741Z" fill="#3C89D9"/>
<path d="M144.184 367.984C144.184 367.984 150.588 409.213 148.716 416.881C148.716 416.881 161.413 415.284 169.339 412.85C169.339 412.85 153.258 390.688 153.666 376.559C154.522 346.844 139.704 338.981 139.704 338.981C139.704 338.981 146.996 361.907 144.184 367.984Z" fill="#2D6FAB"/>
<path d="M139.704 338.981C125.007 347.425 118.271 385.4 124.13 408.816C125.972 416.177 135.255 415.891 143.222 410.918C148.85 407.404 145.597 403.216 146.14 401.696C147.499 397.896 151.688 368.273 151.688 368.273C151.688 368.273 149.736 348.705 139.704 338.981Z" fill="#3C89D9"/>
<path d="M196.472 401.265C193.352 401.69 190.318 402.548 187.475 403.812C186.377 404.305 185.667 404.774 185.485 405.849C185.277 406.081 185.175 406.38 185.203 406.681C185.231 406.982 185.385 407.261 185.633 407.457C188.738 409.62 191.271 408.957 194.324 407.175C197.482 405.33 199.102 406.817 201.913 407.945C202.955 408.363 203.533 408.577 204.531 408.099C204.679 407.996 204.799 407.862 204.88 407.708C204.96 407.554 205 407.384 204.995 407.212C205.268 403.635 199.097 400.961 196.472 401.265Z" fill="#FFB5AD"/>
<path d="M199.373 399.363C196.292 399.495 193.24 399.979 190.287 400.803C189.173 401.121 186.754 399.878 186.531 400.707C186.15 401.025 186.07 403.88 186.643 404.238C189.657 406.12 193.872 405.06 196.991 403.853C200.218 402.604 201.776 403.866 204.537 404.92C205.561 405.311 206.128 405.514 207.146 405.202C207.287 405.144 207.408 405.051 207.496 404.934C207.584 404.817 207.635 404.679 207.645 404.537C208.06 401.756 202.005 399.286 199.373 399.363Z" fill="#FFB5AD"/>
<path d="M200.661 398.246C197.581 398.378 194.529 398.862 191.576 399.687C190.461 400.004 189.732 400.329 189.508 401.157C189.403 401.235 189.319 401.335 189.265 401.449C189.21 401.563 189.186 401.687 189.194 401.811C189.202 401.935 189.242 402.056 189.311 402.163C189.38 402.27 189.476 402.36 189.591 402.425C192.605 404.306 195.161 403.943 198.279 402.736C201.507 401.487 203.065 402.75 205.826 403.803C206.849 404.195 207.417 404.398 208.435 404.085C208.576 404.027 208.697 403.935 208.785 403.817C208.873 403.7 208.924 403.563 208.934 403.42C209.349 400.639 203.294 398.169 200.661 398.246Z" fill="#FFB5AD"/>
<path d="M207.376 400.683L207.377 400.683L207.374 400.68C206.766 399.484 205.247 398.351 203.602 397.538C201.334 396.165 198.598 395.616 195.92 395.996C191.769 396.606 187.672 397.496 183.661 398.66L188.209 400.749C188.679 403.554 194.168 402.416 196.991 401.324C200.218 400.075 201.776 401.337 204.537 402.391C205.561 402.781 206.129 402.985 207.146 402.672C207.287 402.614 207.409 402.522 207.497 402.404C207.584 402.287 207.636 402.149 207.645 402.007C207.696 401.551 207.603 401.091 207.376 400.683Z" fill="#FFB5AD"/>
<path d="M160.244 325.741C160.244 325.741 169.21 332.802 181.643 330.98L180.308 337.62C180.308 337.62 160.074 334.171 160.244 325.741Z" fill="white"/>
<path d="M181.643 330.98L186.005 336.492C186.005 336.492 187.263 332.505 187.32 330.691C187.32 330.691 186.09 329.26 184.543 329.085C184.543 329.085 184.287 330.718 181.643 330.98Z" fill="white"/>
<path d="M152.904 405.362C152.904 412.666 145.812 418.587 137.063 418.587C128.314 418.587 121.221 412.666 121.221 405.362C121.221 398.058 128.314 392.137 137.063 392.137C145.812 392.137 152.904 398.058 152.904 405.362Z" fill="#2D6FAB"/>
<path d="M158.252 308.039C158.252 308.039 159.175 317.086 164.543 321.839C168.2 325.077 183.495 325.741 187.779 320.653C193.272 314.129 190.453 286.868 189.216 284.519C187.979 282.169 166.521 273.452 159.237 283.055C151.951 292.659 158.252 308.039 158.252 308.039Z" fill="#FFB5AD"/>
<path d="M191.273 265.563C183.797 273.35 157.019 263.578 149.699 279.973C148.314 278.249 147.646 276.12 147.818 273.978C147.892 272.865 146.02 272.953 145.944 274.06C145.771 276.515 146.536 278.949 148.106 280.934C146.272 281.304 144.506 281.921 142.866 282.765C141.823 283.331 142.826 284.797 143.868 284.232C145.257 283.518 146.75 282.992 148.3 282.67C146.179 285.215 143.568 298.23 150.252 306.602C152.061 308.865 154.616 308.811 155.722 307.86C160.236 303.982 161.537 296.237 161.805 286.902C168.246 283.352 181.427 282.88 189.216 284.519C193.891 285.502 196.378 271.325 191.273 265.563Z" fill="#3C1E01"/>
<path d="M191.273 265.563C192.58 269.272 192.401 275.77 187.31 277.924C179.39 281.275 155.033 274.242 157.266 282.67C160.243 293.914 154.616 308.811 155.722 307.86C160.236 303.982 161.537 296.237 161.805 286.902C168.246 283.352 181.427 282.88 189.216 284.519C193.891 285.502 196.378 271.325 191.273 265.563Z" fill="#23100F"/>
<path d="M158.988 301.819C157.507 300.414 151.237 298.742 150.451 301.064C149.196 304.777 154.04 311.94 159.824 309.034C161.932 307.975 160.271 303.039 158.988 301.819Z" fill="#FFB5AD"/>
<path d="M157.883 304.185C157.883 304.185 153.287 301.395 152.855 302.658C152.008 305.124 155.792 307.16 156.875 307.518C156.875 307.518 154.764 305.373 155.308 304.45C155.853 303.529 157.883 304.185 157.883 304.185Z" fill="#C48B86"/>
<path d="M261.039 412.248H200.38V414.708H261.039V412.248Z" fill="#D1D1D1"/>
<path d="M200.38 414.707L172.967 410.788V408.328L200.38 412.248V414.707Z" fill="white"/>
<path d="M172.967 408.328L241.798 406.462L261.039 412.248H200.38L172.967 408.328Z" fill="#D1D1D1"/>
<path d="M259.329 412.248H198.912L206.865 377.805C206.962 377.329 207.232 376.899 207.63 376.586C208.029 376.273 208.531 376.096 209.053 376.085H263.464C265.624 376.085 267.224 378.061 266.746 380.135L259.329 412.248Z" fill="white"/>
<path opacity="0.31" d="M260.798 412.248H200.38L208.335 377.805C208.431 377.329 208.701 376.899 209.099 376.586C209.497 376.273 210 376.096 210.522 376.085H266.079C266.459 376.099 266.832 376.192 267.169 376.357C267.506 376.521 267.8 376.753 268.028 377.035C268.257 377.317 268.415 377.643 268.491 377.988C268.567 378.334 268.559 378.691 268.468 379.034L260.798 412.248Z" fill="#D1D1D1"/>
<path d="M260.798 412.248H214.054L245.859 376.085H266.079C266.459 376.099 266.832 376.192 267.169 376.357C267.506 376.521 267.8 376.753 268.028 377.035C268.257 377.317 268.415 377.643 268.491 377.988C268.567 378.334 268.559 378.691 268.468 379.034L260.798 412.248Z" fill="white"/>
<path d="M125.319 406.935C125.129 408.669 126.598 416.603 133.913 416.881C152.018 417.571 187.49 407.867 187.49 407.867L187.32 397.878C187.32 397.878 139.373 396.262 133.521 397.665C127.663 399.069 125.788 402.648 125.319 406.935Z" fill="#FFB5AD"/>
<path d="M126.372 411.611C126.372 411.611 133.99 413.679 144.889 412.722C155.786 411.764 187.49 407.867 187.49 407.867C187.49 407.867 145.348 419.639 131.7 416.518C130.422 416.211 129.255 415.595 128.318 414.732C127.382 413.87 126.711 412.793 126.372 411.611Z" fill="#C48B86"/>
<path d="M179.104 316.706C178.632 316.706 178.161 316.652 177.704 316.546C174.923 315.894 173.559 313.501 173.502 313.4C173.444 313.296 173.433 313.174 173.471 313.062C173.509 312.95 173.594 312.857 173.707 312.803C173.819 312.749 173.95 312.739 174.071 312.774C174.192 312.809 174.293 312.888 174.352 312.992C174.364 313.014 175.586 315.139 177.947 315.688C179.544 316.057 181.322 315.638 183.225 314.433C183.277 314.4 183.336 314.377 183.397 314.365C183.459 314.353 183.522 314.353 183.584 314.363C183.646 314.374 183.705 314.396 183.758 314.428C183.81 314.46 183.856 314.501 183.891 314.549C183.927 314.597 183.951 314.651 183.964 314.708C183.977 314.765 183.978 314.824 183.966 314.881C183.955 314.939 183.931 314.993 183.896 315.042C183.862 315.091 183.818 315.133 183.766 315.166C182.415 316.103 180.79 316.64 179.104 316.706Z" fill="#161228"/>
<path d="M183.456 299.354C183.706 300.507 184.703 301.329 185.737 301.193C186.807 301.052 187.497 299.929 187.235 298.685C186.972 297.44 185.868 296.621 184.809 296.858C183.792 297.084 183.209 298.2 183.456 299.354Z" fill="#161228"/>
<path d="M170.003 301.091C170.28 302.372 171.389 303.286 172.539 303.135C173.727 302.978 174.494 301.731 174.203 300.348C173.91 298.963 172.682 298.054 171.507 298.318C170.376 298.569 169.727 299.808 170.003 301.091Z" fill="#161228"/>
<path d="M180.427 309.723C179.864 309.736 179.301 309.692 178.748 309.593C178.687 309.576 178.631 309.548 178.583 309.511C178.534 309.474 178.494 309.428 178.465 309.377C178.435 309.325 178.417 309.269 178.411 309.211C178.405 309.153 178.412 309.094 178.431 309.038C178.449 308.983 178.479 308.931 178.52 308.886C178.56 308.841 178.609 308.804 178.665 308.777C178.721 308.75 178.781 308.733 178.844 308.728C178.907 308.722 178.97 308.729 179.03 308.746C179.606 308.909 182.294 308.883 182.63 308.502C182.488 308.296 182.305 307.988 182.052 307.561C181.155 306.063 180.374 304.508 179.713 302.909C179.69 302.854 179.679 302.796 179.68 302.738C179.681 302.679 179.694 302.622 179.72 302.568C179.745 302.515 179.781 302.466 179.827 302.426C179.872 302.385 179.926 302.353 179.984 302.332C180.043 302.311 180.106 302.3 180.169 302.302C180.232 302.303 180.294 302.316 180.352 302.339C180.409 302.362 180.462 302.396 180.505 302.438C180.549 302.481 180.583 302.53 180.606 302.585C181.25 304.15 182.014 305.67 182.892 307.134C183.12 307.496 183.323 307.872 183.501 308.257C183.566 308.398 183.584 308.554 183.554 308.705C183.524 308.856 183.446 308.995 183.332 309.105C182.851 309.587 181.538 309.723 180.427 309.723Z" fill="#161228"/>
<path d="M165.423 296.337C165.231 296.337 165.044 296.283 164.885 296.184C164.726 296.084 164.604 295.942 164.533 295.777C164.462 295.612 164.447 295.431 164.488 295.258C164.53 295.084 164.627 294.926 164.766 294.804C165.996 293.751 167.483 292.989 169.1 292.583C170.717 292.178 172.417 292.142 174.052 292.477C174.297 292.538 174.506 292.686 174.634 292.888C174.761 293.091 174.797 293.333 174.732 293.56C174.668 293.787 174.509 293.981 174.291 294.099C174.072 294.218 173.812 294.252 173.566 294.193C172.245 293.932 170.876 293.968 169.573 294.299C168.27 294.63 167.072 295.246 166.08 296.095C165.903 296.251 165.667 296.337 165.423 296.337Z" fill="#161228"/>
<path d="M189.045 293.941C188.825 293.941 188.611 293.87 188.441 293.741C185.385 291.427 181.861 292.759 181.712 292.817C181.479 292.908 181.216 292.91 180.981 292.822C180.746 292.734 180.559 292.564 180.459 292.349C180.359 292.133 180.356 291.889 180.45 291.672C180.543 291.454 180.726 291.279 180.959 291.186C181.15 291.111 185.682 289.357 189.653 292.368C189.806 292.484 189.916 292.641 189.969 292.817C190.022 292.994 190.014 293.181 189.948 293.353C189.881 293.525 189.759 293.674 189.597 293.779C189.436 293.885 189.243 293.941 189.045 293.941Z" fill="#161228"/>
<path d="M538.899 500.119H75.2917C75.0656 500.117 74.8493 500.033 74.69 499.884C74.5307 499.736 74.4413 499.535 74.4413 499.326C74.4413 499.116 74.5307 498.915 74.69 498.767C74.8493 498.618 75.0656 498.534 75.2917 498.533H538.899C539.126 498.534 539.342 498.618 539.501 498.767C539.66 498.915 539.75 499.116 539.75 499.326C539.75 499.535 539.66 499.736 539.501 499.884C539.342 500.033 539.126 500.117 538.899 500.119Z" fill="#4D4D4D"/>
<path d="M90.9102 201V172.367H100.188C103.703 172.367 105.995 172.51 107.062 172.797C108.703 173.227 110.077 174.164 111.184 175.609C112.29 177.042 112.844 178.897 112.844 181.176C112.844 182.934 112.525 184.411 111.887 185.609C111.249 186.807 110.435 187.751 109.445 188.441C108.469 189.118 107.473 189.568 106.457 189.789C105.077 190.062 103.078 190.199 100.461 190.199H96.6914V201H90.9102ZM96.6914 177.211V185.336H99.8555C102.134 185.336 103.658 185.186 104.426 184.887C105.194 184.587 105.793 184.118 106.223 183.48C106.665 182.842 106.887 182.1 106.887 181.254C106.887 180.212 106.581 179.353 105.969 178.676C105.357 177.999 104.582 177.576 103.645 177.406C102.954 177.276 101.568 177.211 99.4844 177.211H96.6914ZM125.109 201V188.949L114.621 172.367H121.398L128.137 183.695L134.738 172.367H141.398L130.871 188.988V201H125.109Z" fill="white"/>
</g>
<defs>
<linearGradient id="paint0_linear_3_5925" x1="217.015" y1="302.351" x2="217.015" y2="179.826" gradientUnits="userSpaceOnUse">
<stop stop-color="white" stop-opacity="0"/>
<stop offset="1" stop-color="white"/>
</linearGradient>
<clipPath id="clip0_3_5925">
<rect width="594" height="550" fill="white"/>
</clipPath>
</defs>
</svg>
