<svg width="122" height="122" viewBox="0 0 122 122" fill="none" xmlns="http://www.w3.org/2000/svg">
<g clip-path="url(#clip0_3_19)">
<path d="M60.5 30L108.564 113.25H12.4356L60.5 30Z" fill="url(#paint0_linear_3_19)"/>
<path d="M82.6359 73.9577L82.1594 73.8424C79.9696 73.246 77.9331 72.1871 76.1871 70.7371C68.3257 64.5418 63.5687 56.0199 61.4318 51.4926L61 50.5785L60.5692 51.4916C58.4323 56.019 53.6752 64.5389 45.8139 70.7362C44.0676 72.1886 42.031 73.2509 39.8406 73.8519L39.3641 73.9673L39.4899 74.4381C42.5208 85.7746 51.1619 93.3919 61 93.3919C70.8382 93.3919 79.484 85.7669 82.5063 74.4248L82.6359 73.9577ZM61 86.7048C66.7312 86.7048 71.898 82.8418 74.4829 76.6246C74.5565 76.4504 74.6962 76.3125 74.8712 76.2411C75.0463 76.1696 75.2425 76.1704 75.417 76.2433C75.5912 76.3171 75.7291 76.4569 75.8006 76.6321C75.872 76.8074 75.8712 77.0037 75.7982 77.1783C72.9865 83.9388 67.3154 88.1393 60.9952 88.1393C60.8057 88.1393 60.6238 88.064 60.4898 87.9299C60.3557 87.7958 60.2804 87.614 60.2804 87.4244C60.2804 87.2348 60.3557 87.053 60.4898 86.919C60.6238 86.7849 60.8057 86.7096 60.9952 86.7096L61 86.7048Z" fill="#FFDC60"/>
<path d="M61 28.1315C55.0487 28.1315 50.2068 31.9564 50.2068 36.6581C50.2108 36.9375 50.2347 37.2162 50.2783 37.4921L50.3583 38.064L50.9054 37.8734C57.4468 35.6235 64.5522 35.6235 71.0936 37.8734L71.6407 38.064L71.7207 37.4921C71.7643 37.2162 71.7882 36.9375 71.7922 36.6581C71.7932 31.9564 66.9513 28.1315 61 28.1315Z" fill="white"/>
<path d="M87.8028 71.6512C90.8309 69.5467 91.9308 64.6076 90.4172 59.9077C86.1234 46.5716 74.3018 37.6103 61 37.6103C47.6982 37.6103 35.8766 46.5697 31.5827 59.9077C30.0701 64.6076 31.1691 69.5467 34.1972 71.6512C35.3684 72.4558 36.7862 72.8207 38.2003 72.6815H38.2603H38.2994C40.7568 72.316 43.0572 71.2517 44.9265 69.6153C55.2641 61.4661 60.2823 48.5903 60.3328 48.4597C60.3847 48.3249 60.4762 48.2089 60.5953 48.1271C60.7144 48.0453 60.8555 48.0015 61 48.0015C61.1445 48.0015 61.2856 48.0453 61.4047 48.1271C61.5238 48.2089 61.6153 48.3249 61.6672 48.4597C61.7167 48.5894 66.734 61.4651 77.0706 69.6134C79.6812 71.6722 82.1651 72.7177 84.3449 72.7177C85.5804 72.7306 86.7892 72.3578 87.8028 71.6512Z" fill="white"/>
<path d="M61 95.2982C71.7894 95.2982 81.3015 86.8316 84.4287 74.6058C86.0236 74.6127 87.5819 74.1278 88.8913 73.2171C92.6504 70.6046 94.0248 64.8916 92.232 59.3234C90.7876 54.6907 88.3711 50.4195 85.1439 46.7954C81.9168 43.1713 77.9533 40.2777 73.5183 38.308C73.6384 37.7663 73.6988 37.213 73.6985 36.6581C73.6985 31.293 68.7422 26.8648 62.3953 26.2919C62.9796 23.6832 65.1118 17.8711 72.5071 17.8711C72.823 17.8711 73.1261 17.7456 73.3495 17.5221C73.5729 17.2987 73.6985 16.9957 73.6985 16.6797C73.6985 16.3637 73.5729 16.0607 73.3495 15.8372C73.1261 15.6138 72.823 15.4883 72.5071 15.4883C70.0421 15.3805 67.6056 16.0493 65.5411 17.4002C63.4765 18.7512 61.8882 20.7161 61 23.018C60.1117 20.716 58.5232 18.7509 56.4585 17.3999C54.3938 16.049 51.957 15.3803 49.4919 15.4883C49.176 15.4883 48.8729 15.6138 48.6495 15.8372C48.4261 16.0607 48.3005 16.3637 48.3005 16.6797C48.3005 16.9957 48.4261 17.2987 48.6495 17.5221C48.8729 17.7456 49.176 17.8711 49.4919 17.8711C56.8872 17.8711 59.0232 23.6851 59.6036 26.2919C53.2568 26.8638 48.3005 31.293 48.3005 36.6581C48.3002 37.213 48.3606 37.7663 48.4807 38.308C44.0459 40.2778 40.0826 43.1715 36.8556 46.7956C33.6286 50.4197 31.2122 54.6908 29.768 59.3234C27.9761 64.8906 29.3496 70.6046 33.1087 73.2171C34.418 74.1279 35.9763 74.6129 37.5712 74.6058C40.7032 86.8297 50.2049 95.2982 61 95.2982ZM61 92.9154C51.3896 92.9154 42.8906 85.3228 39.9559 74.3151C42.2112 73.6965 44.3087 72.6041 46.1084 71.1107C54.1432 64.7772 58.9727 55.9923 61 51.6946C63.0273 55.9913 67.8568 64.7772 75.8906 71.1107C77.6911 72.6025 79.7898 73.6918 82.0459 74.3056C79.1094 85.3161 70.6075 92.9154 61 92.9154ZM50.6834 36.6581C50.6834 32.2194 55.3108 28.608 61 28.608C66.6892 28.608 71.3166 32.2156 71.3166 36.6581C71.3127 36.9151 71.2904 37.1716 71.2499 37.4254C64.6096 35.1306 57.3913 35.1306 50.751 37.4254C50.7102 37.1716 50.6876 36.9152 50.6834 36.6581ZM32.0364 60.0545C36.2664 46.9147 47.9069 38.0869 61 38.0869C74.0931 38.0869 85.7336 46.9147 89.9635 60.0535C91.4142 64.559 90.3915 69.2712 87.5312 71.2594C84.9263 73.0704 81.3168 72.3527 77.367 69.2388C67.1105 61.1534 62.1628 48.4168 62.117 48.2891C62.031 48.0635 61.8785 47.8694 61.6797 47.7324C61.4809 47.5955 61.2452 47.5221 61.0038 47.5221C60.7624 47.5221 60.5266 47.5955 60.3278 47.7324C60.129 47.8694 59.9765 48.0635 59.8905 48.2891C59.8419 48.4168 54.8943 61.1563 44.6405 69.2388C42.8414 70.8142 40.6299 71.8433 38.266 72.2049C38.2517 72.2049 38.2384 72.2049 38.2241 72.2049H38.2184C36.897 72.3431 35.5698 72.0051 34.4755 71.2518C31.6085 69.2722 30.5858 64.5599 32.0364 60.0545Z" fill="url(#paint1_linear_3_19)"/>
<path d="M75.5981 75.7992C75.3064 75.6779 74.9784 75.6774 74.6863 75.7979C74.3943 75.9184 74.162 76.1499 74.0407 76.4416C71.5311 82.4787 66.5329 86.2283 61 86.2283C60.684 86.2283 60.381 86.3538 60.1576 86.5772C59.9341 86.8007 59.8086 87.1037 59.8086 87.4197C59.8086 87.7357 59.9341 88.0387 60.1576 88.2621C60.381 88.4856 60.684 88.6111 61 88.6111C67.5156 88.6111 73.3563 84.2992 76.2433 77.3566C76.3033 77.212 76.3342 77.057 76.3342 76.9004C76.3342 76.7438 76.3034 76.5888 76.2435 76.4442C76.1836 76.2995 76.0957 76.1681 75.985 76.0574C75.8742 75.9468 75.7428 75.859 75.5981 75.7992ZM60.9943 98.252C60.6783 98.252 60.3753 98.3775 60.1518 98.6009C59.9284 98.8243 59.8029 99.1274 59.8029 99.4434V105.32C59.8029 105.636 59.9284 105.939 60.1518 106.163C60.3753 106.386 60.6783 106.512 60.9943 106.512C61.3103 106.512 61.6133 106.386 61.8367 106.163C62.0602 105.939 62.1857 105.636 62.1857 105.32V99.4434C62.1857 99.1274 62.0602 98.8243 61.8367 98.6009C61.6133 98.3775 61.3103 98.252 60.9943 98.252ZM78.0486 94.8312C77.9662 94.6971 77.858 94.5808 77.7304 94.4887C77.6028 94.3967 77.4582 94.3309 77.305 94.295C77.1517 94.2592 76.9929 94.254 76.8377 94.2799C76.6825 94.3058 76.534 94.3621 76.4007 94.4457C76.2674 94.5293 76.1519 94.6385 76.0611 94.7669C75.9702 94.8953 75.9056 95.0405 75.8711 95.194C75.8366 95.3476 75.8329 95.5064 75.8602 95.6614C75.8874 95.8163 75.9451 95.9644 76.0298 96.0969L79.1523 101.077C79.2347 101.211 79.3428 101.327 79.4704 101.419C79.5981 101.512 79.7427 101.577 79.8959 101.613C80.0491 101.649 80.2079 101.654 80.3631 101.628C80.5183 101.602 80.6668 101.546 80.8001 101.463C80.9335 101.379 81.0489 101.27 81.1398 101.141C81.2307 101.013 81.2952 100.868 81.3297 100.714C81.3642 100.561 81.3679 100.402 81.3407 100.247C81.3134 100.092 81.2558 99.9438 81.171 99.8113L78.0486 94.8312ZM91.5 88.0259L86.5752 84.8177C86.4441 84.7307 86.2971 84.6705 86.1426 84.6406C85.9881 84.6108 85.8293 84.6118 85.6752 84.6436C85.5211 84.6755 85.3749 84.7376 85.2449 84.8262C85.115 84.9149 85.0038 85.0285 84.918 85.1603C84.8322 85.2922 84.7733 85.4397 84.7448 85.5944C84.7162 85.7492 84.7187 85.908 84.7519 86.0618C84.7851 86.2156 84.8484 86.3613 84.9382 86.4905C85.028 86.6197 85.1426 86.7298 85.2752 86.8145L90.1999 90.0227C90.4647 90.1918 90.7856 90.2495 91.0927 90.1832C91.3998 90.1169 91.6683 89.9319 91.8397 89.6686C92.0111 89.4054 92.0716 89.085 92.008 88.7773C91.9443 88.4697 91.7618 88.1996 91.5 88.0259ZM45.5937 94.4547C45.4609 94.3718 45.313 94.3159 45.1585 94.2902C45.0041 94.2645 44.8461 94.2695 44.6935 94.3049C44.541 94.3403 44.397 94.4055 44.2696 94.4966C44.1423 94.5877 44.0342 94.703 43.9515 94.836L40.829 99.816C40.6645 100.084 40.6124 100.405 40.6839 100.711C40.7555 101.017 40.9449 101.282 41.2111 101.449C41.4773 101.616 41.7986 101.671 42.1051 101.602C42.4116 101.534 42.6785 101.346 42.8477 101.082L45.9702 96.1017C46.054 95.969 46.1108 95.821 46.1373 95.6662C46.1637 95.5115 46.1593 95.353 46.1244 95.1999C46.0894 95.0469 46.0245 94.9023 45.9334 94.7744C45.8423 94.6465 45.7269 94.5378 45.5937 94.4547ZM35.4286 84.8177L30.5 88.0259C30.3674 88.1106 30.2529 88.2207 30.1631 88.3499C30.0733 88.479 30.0099 88.6247 29.9767 88.7785C29.9435 88.9323 29.9411 89.0912 29.9696 89.2459C29.9981 89.4006 30.057 89.5482 30.1429 89.68C30.2287 89.8119 30.3398 89.9254 30.4698 90.0141C30.5997 90.1028 30.746 90.1648 30.9001 90.1967C31.0541 90.2286 31.213 90.2296 31.3675 90.1997C31.5219 90.1698 31.669 90.1097 31.8001 90.0227L36.7249 86.8145C36.8575 86.7298 36.972 86.6197 37.0618 86.4905C37.1516 86.3613 37.2149 86.2156 37.2481 86.0618C37.2814 85.908 37.2838 85.7492 37.2553 85.5944C37.2267 85.4397 37.1679 85.2922 37.082 85.1603C36.9962 85.0285 36.8851 84.9149 36.7551 84.8262C36.6251 84.7376 36.4789 84.6755 36.3248 84.6436C36.1707 84.6118 36.0119 84.6108 35.8574 84.6406C35.7029 84.6705 35.5559 84.7307 35.4248 84.8177H35.4286Z" fill="#E41048"/>
</g>
<defs>
<linearGradient id="paint0_linear_3_19" x1="61" y1="89" x2="60" y2="119.5" gradientUnits="userSpaceOnUse">
<stop stop-color="#FFE297"/>
<stop offset="1" stop-color="#D9D9D9" stop-opacity="0"/>
</linearGradient>
<linearGradient id="paint1_linear_3_19" x1="61.0002" y1="15.477" x2="61.0002" y2="95.2982" gradientUnits="userSpaceOnUse">
<stop stop-color="#FFC637"/>
<stop offset="0.240414" stop-color="#F99A3B"/>
<stop offset="1" stop-color="#E41048"/>
</linearGradient>
<clipPath id="clip0_3_19">
<rect width="122" height="122" fill="white"/>
</clipPath>
</defs>
</svg>
